<?xml version="1.0" standalone="no"?><!DOCTYPE svg PUBLIC "-//W3C//DTD SVG 1.1//EN" "http://www.w3.org/Graphics/SVG/1.1/DTD/svg11.dtd"><svg t="1747053554296" class="icon" viewBox="0 0 1088 1024" version="1.1" xmlns="http://www.w3.org/2000/svg" p-id="1652" xmlns:xlink="http://www.w3.org/1999/xlink" width="136" height="128"><path d="M803.43719618 90.125C896.6188368 90.125 972.18719618 160.94726562 972.18719618 248.328125v527.34375c0 87.38085938-75.56835938 158.203125-168.75000001 158.203125H297.18719617C204.00555555 933.875 128.43719617 863.05273438 128.43719617 775.671875V248.328125c0-87.38085938 75.56835938-158.203125 168.75000001-158.203125h506.24999999z m3.32226562 68.5546875H293.86493055C240.33953993 158.6796875 196.99188367 198.81054687 196.99188367 248.328125v527.34375c0 49.51757813 43.34765625 89.6484375 96.87304688 89.6484375h512.89453125c53.52539063 0 96.87304688-40.13085938 96.87304688-89.6484375V248.328125c0-49.51757813-43.34765625-89.6484375-96.87304688-89.6484375z" fill="#0a66c2" p-id="1653"></path><path d="M162.1344618 344.19921875h771.1875v68.5546875H162.1344618z" fill="#0a66c2" p-id="1654"></path><path d="M257.79461805 216.6875m39.55078126 0l0 0q39.55078125 0 39.55078124 39.55078125l0 0q0 39.55078125-39.55078124 39.55078125l0 0q-39.55078125 0-39.55078126-39.55078125l0 0q0-39.55078125 39.55078126-39.55078125Z" fill="#0a66c2" p-id="1655"></path><path d="M389.36688367 216.6875m39.55078126 0l0 0q39.55078125 0 39.55078126 39.55078125l0 0q0 39.55078125-39.55078126 39.55078125l0 0q-39.55078125 0-39.55078125-39.55078125l0 0q0-39.55078125 39.55078125-39.55078125Z" fill="#0a66c2" p-id="1656"></path></svg>